<?xml version="1.0" standalone="no"?>
<!DOCTYPE svg PUBLIC "-//W3C//DTD SVG 20010904//EN"
 "http://www.w3.org/TR/2001/REC-SVG-20010904/DTD/svg10.dtd">
<svg version="1.0" xmlns="http://www.w3.org/2000/svg"
 width="307.000000pt" height="257.000000pt" viewBox="0 0 307.000000 257.000000"
 preserveAspectRatio="xMidYMid meet">

<g transform="translate(0.000000,257.000000) scale(0.100000,-0.100000)"
fill="#fff" stroke="none">
<path d="M2061 2274 c-5 -181 -538 -468 -886 -477 -101 -3 -147 7 -184 39
l-30 25 13 -43 c39 -124 108 -229 167 -252 50 -20 194 -21 286 -2 304 64 631
249 712 403 25 48 6 163 -44 268 -29 61 -33 66 -34 39z"/>
<path d="M2065 1722 c-130 -145 -460 -283 -680 -284 l-80 -1 55 -19 c79 -29
245 -35 329 -13 145 38 267 118 344 228 44 62 81 127 75 131 -2 1 -21 -18 -43
-42z"/>
<path d="M0 610 l0 -610 95 0 c106 0 145 12 187 56 35 39 48 91 48 197 l0 87
230 0 230 0 0 -170 0 -170 160 0 160 0 0 610 0 610 -106 0 c-121 0 -156 -14
-193 -74 -20 -31 -21 -49 -21 -300 l0 -266 -230 0 -230 0 0 320 0 320 -165 0
-165 0 0 -610z"/>
<path d="M1160 1100 l0 -120 125 0 125 0 0 -490 0 -490 97 0 c116 0 169 20
205 78 23 37 23 39 26 470 l3 432 85 0 c59 0 86 4 89 13 2 6 13 60 23 120 l19
107 -398 0 -399 0 0 -120z"/>
<path d="M1987 1113 c-10 -60 -17 -114 -17 -120 0 -10 56 -13 248 -13 292 0
299 -2 345 -91 25 -48 28 -63 25 -131 -3 -86 -20 -118 -79 -153 -31 -18 -55
-20 -257 -23 l-222 -3 2 -287 3 -287 111 0 c107 0 112 1 148 29 54 41 66 77
66 200 l0 104 138 4 c163 6 224 24 301 94 93 84 134 187 134 344 1 190 -65
320 -193 385 -94 48 -152 55 -456 55 l-280 0 -17 -107z"/>
</g>
</svg>
